PathFileType	4	(X/Y/Z)	T00_JumpTrial_0-2667.trc
DataRate	CameraRate	NumFrames	NumMarkers	Units	OrigDataRate	OrigDataStartFrame	OrigNumFrames
30	30	6	21	m	30	0	2667
Frame#	Time	RHip			RKnee			RAnkle			RBigToe			RSmallToe			RHeel			LHip			LKnee			LAnkle			LBigToe			LSmallToe			LHeel			Neck			Head			Nose			RShoulder			RElbow			RWrist			LShoulder			LElbow			LWrist		
		X1	Y1	Z1	X2	Y2	Z2	X3	Y3	Z3	X4	Y4	Z4	X5	Y5	Z5	X6	Y6	Z6	X7	Y7	Z7	X8	Y8	Z8	X9	Y9	Z9	X10	Y10	Z10	X11	Y11	Z11	X12	Y12	Z12	X13	Y13	Z13	X14	Y14	Z14	X15	Y15	Z15	X16	Y16	Z16	X17	Y17	Z17	X18	Y18	Z18	X19	Y19	Z19	X20	Y20	Z20	X21	Y21	Z21
1	0.0333333333333333	-4.274158619392226	0.4971913361199451	0.8989643375085525	-3.7616205343395794	2.2515802869246597	0.9359245912697748	-5.004263751902755	-1.211604535091145	0.5137275794200693	-3.9678198864139564	2.737069723283903	0.2701694596676346	-4.147580503996766	2.6754254661904775	0.21594031666583763	-3.841300030151456	2.318987205781961	0.5881268673577998	-3.596112971252089	2.131368018049399	0.5181868126215349	-4.200359723487886	1.4963339057045233	0.9102271114175983	-4.884897825129128	-1.2294373878468943	0.34930172729674086	-4.277171297192444	2.9010914570571114	0.9303705614982721	-3.9980945066323073	2.6580648155593796	1.0171291570761698	-3.366754165846298	2.085618909561673	0.8871168198997412				-4.976820764111683	-1.1583964961703805	0.7225934536952296	-5.187477733538247	-1.088375188821493	0.3759502395410126	-5.015931755753964	-0.5414613992660797	1.7170545576086111	-4.738678797021095	0.6387623385871221	0.6163160989660883	-4.082456103638653	1.4570606311453214	0.4008380104529651	-4.774497424965944	-0.7607378550531713	1.0038083062262824	-4.661173778315836	-0.35760973467643015	2.262332405185906	-4.219642144022658	0.4872760391058386	0.36609668184470484
2	0.0666666666666666	-4.275602241946952	0.49752768349930726	0.8990193602299767	-3.773252502934202	2.255394408687674	0.9358155934594832	-5.052943682467694	-1.2064446818533818	0.5149185624810766	-4.034606301712291	2.7689567642878155	0.26367135221244214	-4.182610244480885	2.7009672026394265	0.2120622942335837	-3.833462022707976	2.3152876750050977	0.588611069899215	-3.5993943368653003	2.132120533840899	0.5179504411326794	-4.216070225208898	1.5075317603814897	0.9101038637032689	-4.9343618804315605	-1.2250719715216825	0.3494452305747669	-4.3861644234188795	2.9689892409990506	0.9201070103038647	-3.99839936212223	2.6691275936187715	1.0175683949247718	-3.370210406841502	2.0876068210778254	0.8873251934705675				-4.976503234342677	-1.1582990175322363	0.7225062850935957	-5.182908544760872	-1.0889026462578792	0.3759146998266506	-4.765405341989223	-0.612542180851568	1.6997216556917802	-4.7470472000989705	0.6408015838366647	0.6164549607948229	-4.10319882004878	1.4617545062046837	0.3992249477895915	-4.761413452393586	-0.7698738592973933	1.0034727059854571	-4.824580305630088	-0.44136340486215175	2.2863854930158727	-4.218412035300821	0.4863795176622067	0.36600718335523613
3	0.1	-4.274348384286409	0.4983007793413141	0.8989547256965061	-3.7696544595990384	2.253925143334933	0.9359347145102686	-5.0445542862504125	-1.204820074996383	0.5153311202104467	-4.077517595348269	2.7907406639168877	0.2581252773946003	-4.189689498148194	2.7053194814546027	0.20945462938624504	-3.8170993640654363	2.307343485944021	0.5894888665370768	-3.5996110640983563	2.132150667555354	0.5178776983015896	-4.220328100231905	1.510660421900153	0.9101455700147144	-4.930377106697434	-1.2248704088578894	0.3493228321741654	-4.426603018882986	2.9949395030535912	0.9161145317894995	-3.9981126169795513	2.6735691356658373	1.017680929527563	-3.3781025912559217	2.093142378102419	0.8876757554727472				-4.977103771789982	-1.158196286323993	0.722463616218237	-5.146729007372477	-1.0929813398743597	0.3755556022516016	-4.73462998449065	-0.6661890072538172	1.6930992041406436	-4.736132194204817	0.637049228561151	0.6161284096357397	-4.101131103135015	1.4607051398119357	0.39918461578312736	-4.754421050594974	-0.7744755312065813	1.0031903698257019	-4.90488763687684	-0.5331516118686128	2.294140129237208	-4.2172684274662045	0.4864732209549658	0.36590090494226907
4	0.1333333333333333	-4.2699265539132405	0.4988284760023659	0.8989787350905358	-3.7559442601756916	2.2489647612383954	0.9361431389476619	-5.0098349374974624	-1.2034763187198447	0.5152210501964033	-4.089885032319931	2.7996145598277336	0.2545856721352355	-4.174486079331179	2.694804670032763	0.2085020593412525	-3.806288560964333	2.3013843472971636	0.5900369342003086	-3.5881282286888467	2.1261389249834632	0.5195092533573579	-4.208428655939195	1.5033058203128027	0.9105385559826106	-4.896280326347164	-1.2253875694763923	0.3492909686595392	-4.39839683408968	2.978956267144589	0.9184112561449944	-3.997450903804686	2.6713611547280385	1.0174758715112981	-3.382535807782272	2.0960586294857277	0.8879349435723198				-4.98072859946548	-1.1578773511228952	0.7225002101898808	-5.090060934532207	-1.099366933995507	0.37488658265992825	-4.86146018763988	-0.7082236466722706	1.6938793258705442	-4.694885081429378	0.6255060511283999	0.6149060797433563	-4.0873232105860495	1.456884152958395	0.4001568968201369	-4.754448519227321	-0.7746270460668885	1.003081458079982	-4.9026284614066755	-0.6364766629039486	2.2844342546360084	-4.221773143251879	0.4902967245816148	0.36557034533403127
5	0.1666666666666666	-4.266598477782812	0.4991909029430318	0.8990444595991731	-3.750969684004105	2.2470384787284177	0.9361592173219782	-5.006753369921742	-1.1985632267715096	0.5136132435391203	-4.0778463216228875	2.797401759062953	0.25365153857630945	-4.158401028378502	2.687503547930519	0.2087067793029787	-3.822244872170503	2.3090369218709923	0.5894975597355885	-3.564152324450327	2.112760823522257	0.5232990139017385	-4.195847031594703	1.4963029940589991	0.9110039167510723	-4.874016282940747	-1.2233673112845576	0.34981857714115155	-4.356449941872508	2.954297431120831	0.9220808087558483	-3.9975065781770027	2.6655438911897504	1.0171841660416474	-3.3759096282596954	2.090688378224687	0.8878356178817111				-4.985141355076102	-1.157557195469055	0.7225095599938125	-5.050987934646903	-1.1037637023737694	0.3742536959673927	-4.973148216734811	-0.7431205854585349	1.693553286806657	-4.644522192736504	0.6140194976604665	0.612903231769031	-4.084710639036745	1.4582099323618505	0.4008598121477871	-4.759272100287606	-0.7732267794406281	1.0033384918308963	-4.89204264108057	-0.7423614277639228	2.2686802337642016	-4.232428813401274	0.49771842192163357	0.3649057440122825
6	0.2	-4.277944776801148	0.5029967844385053	0.8980330894757083	-3.756344604626534	2.248672143969074	0.9360551105715671	-5.0393380329560635	-1.1918847313846883	0.508425283357687	-4.056604776924762	2.789767236251554	0.25473895136050895	-4.1523326109040175	2.6899399530698576	0.20971933196105538	-3.865033020360547	2.3330406635856606	0.5887742351814667	-3.5507444871917393	2.1050364746120165	0.5255939653668503	-4.211723783204631	1.5051968428103701	0.9097753740628889	-4.871499991981865	-1.2206181695261211	0.3504982871664851	-4.342120724431901	2.945938572762693	0.9233934371440251	-3.9982983434816166	2.660244569496125	1.0170180552951884	-3.3663123055284254	2.0832830020186375	0.8876132222018482				-4.974335565456862	-1.1589546737193954	0.7220002479820404	-5.041330717464124	-1.1048749883282427	0.37407192758051866	-5.010288565196419	-0.7712525835153788	1.68923211653562	-4.628083935855193	0.6130662300318919	0.6097818447518435	-4.099019750859364	1.46815545356362	0.4005067335736348	-4.763253939054868	-0.7727601774122291	1.0037979173378138	-4.907912484907497	-0.8406555309337203	2.251402925460061	-4.230103138982166	0.49943632874507204	0.3641502393580214
